G04 #@! TF.GenerationSoftware,KiCad,Pcbnew,(5.1.5)-2*
G04 #@! TF.CreationDate,2020-02-14T15:01:25-07:00*
G04 #@! TF.ProjectId,AGB_LIPO,4147425f-4c49-4504-9f2e-6b696361645f,rev?*
G04 #@! TF.SameCoordinates,Original*
G04 #@! TF.FileFunction,Copper,L2,Bot*
G04 #@! TF.FilePolarity,Positive*
%FSLAX46Y46*%
G04 Gerber Fmt 4.6, Leading zero omitted, Abs format (unit mm)*
G04 Created by KiCad (PCBNEW (5.1.5)-2) date 2020-02-14 15:01:25*
%MOMM*%
%LPD*%
G04 APERTURE LIST*
%ADD10C,0.300000*%
%ADD11C,0.100000*%
%ADD12R,2.500000X2.500000*%
%ADD13C,1.400000*%
%ADD14R,1.600000X1.600000*%
%ADD15C,1.600000*%
%ADD16R,1.340000X1.340000*%
%ADD17R,4.000000X0.250000*%
%ADD18O,1.700000X1.700000*%
%ADD19R,1.700000X1.700000*%
%ADD20C,0.800000*%
%ADD21C,1.000000*%
G04 APERTURE END LIST*
D10*
X98121428Y-34378571D02*
X97264285Y-34378571D01*
X97692857Y-35878571D02*
X97692857Y-34378571D01*
X96764285Y-35878571D02*
X96764285Y-34378571D01*
X96121428Y-35878571D02*
X96121428Y-35092857D01*
X96192857Y-34950000D01*
X96335714Y-34878571D01*
X96550000Y-34878571D01*
X96692857Y-34950000D01*
X96764285Y-35021428D01*
X95407142Y-35878571D02*
X95407142Y-34878571D01*
X95407142Y-34378571D02*
X95478571Y-34450000D01*
X95407142Y-34521428D01*
X95335714Y-34450000D01*
X95407142Y-34378571D01*
X95407142Y-34521428D01*
X94764285Y-35807142D02*
X94621428Y-35878571D01*
X94335714Y-35878571D01*
X94192857Y-35807142D01*
X94121428Y-35664285D01*
X94121428Y-35592857D01*
X94192857Y-35450000D01*
X94335714Y-35378571D01*
X94550000Y-35378571D01*
X94692857Y-35307142D01*
X94764285Y-35164285D01*
X94764285Y-35092857D01*
X94692857Y-34950000D01*
X94550000Y-34878571D01*
X94335714Y-34878571D01*
X94192857Y-34950000D01*
X92407142Y-35807142D02*
X92264285Y-35878571D01*
X91978571Y-35878571D01*
X91835714Y-35807142D01*
X91764285Y-35664285D01*
X91764285Y-35592857D01*
X91835714Y-35450000D01*
X91978571Y-35378571D01*
X92192857Y-35378571D01*
X92335714Y-35307142D01*
X92407142Y-35164285D01*
X92407142Y-35092857D01*
X92335714Y-34950000D01*
X92192857Y-34878571D01*
X91978571Y-34878571D01*
X91835714Y-34950000D01*
X91121428Y-35878571D02*
X91121428Y-34878571D01*
X91121428Y-34378571D02*
X91192857Y-34450000D01*
X91121428Y-34521428D01*
X91050000Y-34450000D01*
X91121428Y-34378571D01*
X91121428Y-34521428D01*
X89764285Y-35878571D02*
X89764285Y-34378571D01*
X89764285Y-35807142D02*
X89907142Y-35878571D01*
X90192857Y-35878571D01*
X90335714Y-35807142D01*
X90407142Y-35735714D01*
X90478571Y-35592857D01*
X90478571Y-35164285D01*
X90407142Y-35021428D01*
X90335714Y-34950000D01*
X90192857Y-34878571D01*
X89907142Y-34878571D01*
X89764285Y-34950000D01*
X88478571Y-35807142D02*
X88621428Y-35878571D01*
X88907142Y-35878571D01*
X89050000Y-35807142D01*
X89121428Y-35664285D01*
X89121428Y-35092857D01*
X89050000Y-34950000D01*
X88907142Y-34878571D01*
X88621428Y-34878571D01*
X88478571Y-34950000D01*
X88407142Y-35092857D01*
X88407142Y-35235714D01*
X89121428Y-35378571D01*
X85978571Y-35878571D02*
X85978571Y-34378571D01*
X85978571Y-35807142D02*
X86121428Y-35878571D01*
X86407142Y-35878571D01*
X86550000Y-35807142D01*
X86621428Y-35735714D01*
X86692857Y-35592857D01*
X86692857Y-35164285D01*
X86621428Y-35021428D01*
X86550000Y-34950000D01*
X86407142Y-34878571D01*
X86121428Y-34878571D01*
X85978571Y-34950000D01*
X85050000Y-35878571D02*
X85192857Y-35807142D01*
X85264285Y-35735714D01*
X85335714Y-35592857D01*
X85335714Y-35164285D01*
X85264285Y-35021428D01*
X85192857Y-34950000D01*
X85050000Y-34878571D01*
X84835714Y-34878571D01*
X84692857Y-34950000D01*
X84621428Y-35021428D01*
X84550000Y-35164285D01*
X84550000Y-35592857D01*
X84621428Y-35735714D01*
X84692857Y-35807142D01*
X84835714Y-35878571D01*
X85050000Y-35878571D01*
X84050000Y-34878571D02*
X83764285Y-35878571D01*
X83478571Y-35164285D01*
X83192857Y-35878571D01*
X82907142Y-34878571D01*
X82335714Y-34878571D02*
X82335714Y-35878571D01*
X82335714Y-35021428D02*
X82264285Y-34950000D01*
X82121428Y-34878571D01*
X81907142Y-34878571D01*
X81764285Y-34950000D01*
X81692857Y-35092857D01*
X81692857Y-35878571D01*
D11*
G36*
X125928500Y-41250000D02*
G01*
X119678500Y-41250000D01*
X119678500Y-36000000D01*
X125928500Y-36000000D01*
X125928500Y-41250000D01*
G37*
X125928500Y-41250000D02*
X119678500Y-41250000D01*
X119678500Y-36000000D01*
X125928500Y-36000000D01*
X125928500Y-41250000D01*
G36*
X125992000Y-25750000D02*
G01*
X119742000Y-25750000D01*
X119742000Y-20500000D01*
X125992000Y-20500000D01*
X125992000Y-25750000D01*
G37*
X125992000Y-25750000D02*
X119742000Y-25750000D01*
X119742000Y-20500000D01*
X125992000Y-20500000D01*
X125992000Y-25750000D01*
D12*
X109150000Y-25600000D03*
X101650000Y-25600000D03*
X98400000Y-25600000D03*
X112400000Y-25600000D03*
D13*
X117200000Y-29060000D03*
X117200000Y-31600000D03*
D14*
X109800000Y-21400000D03*
D15*
X102000000Y-21400000D03*
D16*
X106810000Y-21400000D03*
D17*
X104400000Y-21400000D03*
D18*
X78460500Y-39849500D03*
D19*
X78460500Y-37309500D03*
D20*
X121642000Y-21100000D03*
X125392000Y-25100000D03*
X124142000Y-25100000D03*
X121642000Y-22450000D03*
X125392000Y-23750000D03*
X124142000Y-21100000D03*
X124142000Y-22450000D03*
X125392000Y-21100000D03*
X121642000Y-25100000D03*
X120392000Y-21100000D03*
X125392000Y-22450000D03*
X122892000Y-25100000D03*
X120392000Y-25100000D03*
X120392000Y-22450000D03*
X124142000Y-23750000D03*
X122892000Y-23750000D03*
X122892000Y-21100000D03*
X122892000Y-22450000D03*
X121578500Y-36600000D03*
X120328500Y-39250000D03*
X125328500Y-40600000D03*
X124078500Y-40600000D03*
X121578500Y-37950000D03*
X125328500Y-39250000D03*
X124078500Y-36600000D03*
X124078500Y-37950000D03*
X125328500Y-36600000D03*
X121578500Y-40600000D03*
X120328500Y-36600000D03*
X125328500Y-37950000D03*
X122828500Y-40600000D03*
X120328500Y-40600000D03*
X120328500Y-37950000D03*
X124078500Y-39250000D03*
X122828500Y-39250000D03*
X122828500Y-36600000D03*
X121578500Y-39250000D03*
X122828500Y-37950000D03*
X120392000Y-23750000D03*
X121642000Y-23750000D03*
D21*
X102000000Y-21400000D02*
X99350000Y-21400000D01*
X98400000Y-22350000D02*
X98400000Y-25600000D01*
X99350000Y-21400000D02*
X98400000Y-22350000D01*
X102000000Y-21400000D02*
X106810000Y-21400000D01*
X117200000Y-29060000D02*
X117200000Y-24700000D01*
X113900000Y-21400000D02*
X109800000Y-21400000D01*
X117200000Y-24700000D02*
X113900000Y-21400000D01*
X112400000Y-26800000D02*
X112400000Y-25600000D01*
X117200000Y-31600000D02*
X112400000Y-26800000D01*
M02*
