G04 #@! TF.GenerationSoftware,KiCad,Pcbnew,(5.1.5)-2*
G04 #@! TF.CreationDate,2020-01-26T14:31:08-07:00*
G04 #@! TF.ProjectId,AGB_LIPO,4147425f-4c49-4504-9f2e-6b696361645f,rev?*
G04 #@! TF.SameCoordinates,Original*
G04 #@! TF.FileFunction,Copper,L1,Top*
G04 #@! TF.FilePolarity,Positive*
%FSLAX46Y46*%
G04 Gerber Fmt 4.6, Leading zero omitted, Abs format (unit mm)*
G04 Created by KiCad (PCBNEW (5.1.5)-2) date 2020-01-26 14:31:08*
%MOMM*%
%LPD*%
G04 APERTURE LIST*
%ADD10C,0.100000*%
%ADD11C,0.300000*%
%ADD12R,2.500000X2.500000*%
%ADD13C,1.400000*%
%ADD14R,4.000000X0.250000*%
%ADD15R,1.600000X1.600000*%
%ADD16C,1.600000*%
%ADD17R,1.340000X1.340000*%
%ADD18O,1.700000X1.700000*%
%ADD19R,1.700000X1.700000*%
%ADD20C,0.800000*%
%ADD21C,1.000000*%
G04 APERTURE END LIST*
D10*
G36*
X126500000Y-41250000D02*
G01*
X120250000Y-41250000D01*
X120250000Y-36000000D01*
X126500000Y-36000000D01*
X126500000Y-41250000D01*
G37*
X126500000Y-41250000D02*
X120250000Y-41250000D01*
X120250000Y-36000000D01*
X126500000Y-36000000D01*
X126500000Y-41250000D01*
G36*
X126500000Y-25750000D02*
G01*
X120250000Y-25750000D01*
X120250000Y-20500000D01*
X126500000Y-20500000D01*
X126500000Y-25750000D01*
G37*
X126500000Y-25750000D02*
X120250000Y-25750000D01*
X120250000Y-20500000D01*
X126500000Y-20500000D01*
X126500000Y-25750000D01*
D11*
X81150000Y-20750000D02*
X82150000Y-20750000D01*
X79400000Y-23750000D02*
X79400000Y-21500000D01*
X79400000Y-21500000D02*
X79900000Y-21000000D01*
X79900000Y-21000000D02*
X80650000Y-21500000D01*
X80650000Y-21500000D02*
X81150000Y-20750000D01*
X82150000Y-20750000D02*
X82150000Y-23500000D01*
X84400000Y-22000000D02*
X83900000Y-21500000D01*
X83900000Y-21500000D02*
X83150000Y-21750000D01*
X83150000Y-21750000D02*
X82900000Y-22500000D01*
X82900000Y-22500000D02*
X83400000Y-23500000D01*
X83400000Y-23500000D02*
X84650000Y-23500000D01*
X84650000Y-23500000D02*
X84900000Y-22000000D01*
X84900000Y-22000000D02*
X85400000Y-23750000D01*
X86400000Y-20500000D02*
X86400000Y-23750000D01*
X87650000Y-21500000D02*
X86400000Y-22500000D01*
X86400000Y-22500000D02*
X87900000Y-23500000D01*
X88650000Y-20750000D02*
X88650000Y-24000000D01*
X88650000Y-22500000D02*
X89400000Y-22000000D01*
X89400000Y-22000000D02*
X90150000Y-22250000D01*
X90150000Y-22250000D02*
X90400000Y-23750000D01*
X92150000Y-21750000D02*
X90900000Y-22000000D01*
X90900000Y-22000000D02*
X90650000Y-23250000D01*
X90650000Y-23250000D02*
X91400000Y-24250000D01*
X91400000Y-24250000D02*
X92400000Y-23750000D01*
X92400000Y-23750000D02*
X92900000Y-23000000D01*
X92900000Y-23000000D02*
X92150000Y-21750000D01*
D12*
X109150000Y-25600000D03*
X101650000Y-25600000D03*
X98400000Y-25600000D03*
X112400000Y-25600000D03*
D13*
X117200000Y-29060000D03*
X117200000Y-31600000D03*
D14*
X104400000Y-21400000D03*
D15*
X109800000Y-21400000D03*
D16*
X102000000Y-21400000D03*
D17*
X106810000Y-21400000D03*
D18*
X77000000Y-40040000D03*
D19*
X77000000Y-37500000D03*
D20*
X122150000Y-21100000D03*
X120900000Y-23750000D03*
X125900000Y-25100000D03*
X124650000Y-25100000D03*
X122150000Y-22450000D03*
X125900000Y-23750000D03*
X124650000Y-21100000D03*
X124650000Y-22450000D03*
X125900000Y-21100000D03*
X122150000Y-25100000D03*
X120900000Y-21100000D03*
X125900000Y-22450000D03*
X123400000Y-25100000D03*
X120900000Y-25100000D03*
X120900000Y-22450000D03*
X124650000Y-23750000D03*
X123400000Y-23750000D03*
X123400000Y-21100000D03*
X122150000Y-23750000D03*
X123400000Y-22450000D03*
X122150000Y-36600000D03*
X120900000Y-39250000D03*
X125900000Y-40600000D03*
X124650000Y-40600000D03*
X122150000Y-37950000D03*
X125900000Y-39250000D03*
X124650000Y-36600000D03*
X124650000Y-37950000D03*
X125900000Y-36600000D03*
X122150000Y-40600000D03*
X120900000Y-36600000D03*
X125900000Y-37950000D03*
X123400000Y-40600000D03*
X120900000Y-40600000D03*
X120900000Y-37950000D03*
X124650000Y-39250000D03*
X123400000Y-39250000D03*
X123400000Y-36600000D03*
X122150000Y-39250000D03*
X123400000Y-37950000D03*
D21*
X97809999Y-39190001D02*
X109150000Y-27850000D01*
X109150000Y-27850000D02*
X109150000Y-25600000D01*
X77849999Y-39190001D02*
X97809999Y-39190001D01*
X77000000Y-40040000D02*
X77849999Y-39190001D01*
X101650000Y-27850000D02*
X101650000Y-25600000D01*
X92000000Y-37500000D02*
X101650000Y-27850000D01*
X77000000Y-37500000D02*
X92000000Y-37500000D01*
X117200000Y-29060000D02*
X117200000Y-25550000D01*
X117200000Y-25550000D02*
X119250000Y-23500000D01*
X119250000Y-23500000D02*
X122500000Y-23500000D01*
X117200000Y-31600000D02*
X117200000Y-34700000D01*
X117200000Y-34700000D02*
X120250000Y-37750000D01*
M02*
