G04 #@! TF.GenerationSoftware,KiCad,Pcbnew,(5.1.5)-2*
G04 #@! TF.CreationDate,2020-01-26T14:31:08-07:00*
G04 #@! TF.ProjectId,AGB_LIPO,4147425f-4c49-4504-9f2e-6b696361645f,rev?*
G04 #@! TF.SameCoordinates,Original*
G04 #@! TF.FileFunction,Soldermask,Bot*
G04 #@! TF.FilePolarity,Negative*
%FSLAX46Y46*%
G04 Gerber Fmt 4.6, Leading zero omitted, Abs format (unit mm)*
G04 Created by KiCad (PCBNEW (5.1.5)-2) date 2020-01-26 14:31:08*
%MOMM*%
%LPD*%
G04 APERTURE LIST*
%ADD10C,0.300000*%
%ADD11C,0.100000*%
G04 APERTURE END LIST*
D10*
X98121428Y-34378571D02*
X97264285Y-34378571D01*
X97692857Y-35878571D02*
X97692857Y-34378571D01*
X96764285Y-35878571D02*
X96764285Y-34378571D01*
X96121428Y-35878571D02*
X96121428Y-35092857D01*
X96192857Y-34950000D01*
X96335714Y-34878571D01*
X96550000Y-34878571D01*
X96692857Y-34950000D01*
X96764285Y-35021428D01*
X95407142Y-35878571D02*
X95407142Y-34878571D01*
X95407142Y-34378571D02*
X95478571Y-34450000D01*
X95407142Y-34521428D01*
X95335714Y-34450000D01*
X95407142Y-34378571D01*
X95407142Y-34521428D01*
X94764285Y-35807142D02*
X94621428Y-35878571D01*
X94335714Y-35878571D01*
X94192857Y-35807142D01*
X94121428Y-35664285D01*
X94121428Y-35592857D01*
X94192857Y-35450000D01*
X94335714Y-35378571D01*
X94550000Y-35378571D01*
X94692857Y-35307142D01*
X94764285Y-35164285D01*
X94764285Y-35092857D01*
X94692857Y-34950000D01*
X94550000Y-34878571D01*
X94335714Y-34878571D01*
X94192857Y-34950000D01*
X92407142Y-35807142D02*
X92264285Y-35878571D01*
X91978571Y-35878571D01*
X91835714Y-35807142D01*
X91764285Y-35664285D01*
X91764285Y-35592857D01*
X91835714Y-35450000D01*
X91978571Y-35378571D01*
X92192857Y-35378571D01*
X92335714Y-35307142D01*
X92407142Y-35164285D01*
X92407142Y-35092857D01*
X92335714Y-34950000D01*
X92192857Y-34878571D01*
X91978571Y-34878571D01*
X91835714Y-34950000D01*
X91121428Y-35878571D02*
X91121428Y-34878571D01*
X91121428Y-34378571D02*
X91192857Y-34450000D01*
X91121428Y-34521428D01*
X91050000Y-34450000D01*
X91121428Y-34378571D01*
X91121428Y-34521428D01*
X89764285Y-35878571D02*
X89764285Y-34378571D01*
X89764285Y-35807142D02*
X89907142Y-35878571D01*
X90192857Y-35878571D01*
X90335714Y-35807142D01*
X90407142Y-35735714D01*
X90478571Y-35592857D01*
X90478571Y-35164285D01*
X90407142Y-35021428D01*
X90335714Y-34950000D01*
X90192857Y-34878571D01*
X89907142Y-34878571D01*
X89764285Y-34950000D01*
X88478571Y-35807142D02*
X88621428Y-35878571D01*
X88907142Y-35878571D01*
X89050000Y-35807142D01*
X89121428Y-35664285D01*
X89121428Y-35092857D01*
X89050000Y-34950000D01*
X88907142Y-34878571D01*
X88621428Y-34878571D01*
X88478571Y-34950000D01*
X88407142Y-35092857D01*
X88407142Y-35235714D01*
X89121428Y-35378571D01*
X85978571Y-35878571D02*
X85978571Y-34378571D01*
X85978571Y-35807142D02*
X86121428Y-35878571D01*
X86407142Y-35878571D01*
X86550000Y-35807142D01*
X86621428Y-35735714D01*
X86692857Y-35592857D01*
X86692857Y-35164285D01*
X86621428Y-35021428D01*
X86550000Y-34950000D01*
X86407142Y-34878571D01*
X86121428Y-34878571D01*
X85978571Y-34950000D01*
X85050000Y-35878571D02*
X85192857Y-35807142D01*
X85264285Y-35735714D01*
X85335714Y-35592857D01*
X85335714Y-35164285D01*
X85264285Y-35021428D01*
X85192857Y-34950000D01*
X85050000Y-34878571D01*
X84835714Y-34878571D01*
X84692857Y-34950000D01*
X84621428Y-35021428D01*
X84550000Y-35164285D01*
X84550000Y-35592857D01*
X84621428Y-35735714D01*
X84692857Y-35807142D01*
X84835714Y-35878571D01*
X85050000Y-35878571D01*
X84050000Y-34878571D02*
X83764285Y-35878571D01*
X83478571Y-35164285D01*
X83192857Y-35878571D01*
X82907142Y-34878571D01*
X82335714Y-34878571D02*
X82335714Y-35878571D01*
X82335714Y-35021428D02*
X82264285Y-34950000D01*
X82121428Y-34878571D01*
X81907142Y-34878571D01*
X81764285Y-34950000D01*
X81692857Y-35092857D01*
X81692857Y-35878571D01*
D11*
G36*
X126500000Y-41250000D02*
G01*
X120250000Y-41250000D01*
X120250000Y-36000000D01*
X126500000Y-36000000D01*
X126500000Y-41250000D01*
G37*
X126500000Y-41250000D02*
X120250000Y-41250000D01*
X120250000Y-36000000D01*
X126500000Y-36000000D01*
X126500000Y-41250000D01*
G36*
X126500000Y-25750000D02*
G01*
X120250000Y-25750000D01*
X120250000Y-20500000D01*
X126500000Y-20500000D01*
X126500000Y-25750000D01*
G37*
X126500000Y-25750000D02*
X120250000Y-25750000D01*
X120250000Y-20500000D01*
X126500000Y-20500000D01*
X126500000Y-25750000D01*
G36*
X77113512Y-39143927D02*
G01*
X77262812Y-39173624D01*
X77426784Y-39241544D01*
X77574354Y-39340147D01*
X77699853Y-39465646D01*
X77798456Y-39613216D01*
X77866376Y-39777188D01*
X77901000Y-39951259D01*
X77901000Y-40128741D01*
X77866376Y-40302812D01*
X77798456Y-40466784D01*
X77699853Y-40614354D01*
X77574354Y-40739853D01*
X77426784Y-40838456D01*
X77262812Y-40906376D01*
X77113512Y-40936073D01*
X77088742Y-40941000D01*
X76911258Y-40941000D01*
X76886488Y-40936073D01*
X76737188Y-40906376D01*
X76573216Y-40838456D01*
X76425646Y-40739853D01*
X76300147Y-40614354D01*
X76201544Y-40466784D01*
X76133624Y-40302812D01*
X76099000Y-40128741D01*
X76099000Y-39951259D01*
X76133624Y-39777188D01*
X76201544Y-39613216D01*
X76300147Y-39465646D01*
X76425646Y-39340147D01*
X76573216Y-39241544D01*
X76737188Y-39173624D01*
X76886488Y-39143927D01*
X76911258Y-39139000D01*
X77088742Y-39139000D01*
X77113512Y-39143927D01*
G37*
G36*
X77901000Y-38401000D02*
G01*
X76099000Y-38401000D01*
X76099000Y-36599000D01*
X77901000Y-36599000D01*
X77901000Y-38401000D01*
G37*
G36*
X117419059Y-30877860D02*
G01*
X117555732Y-30934472D01*
X117678735Y-31016660D01*
X117783340Y-31121265D01*
X117865528Y-31244268D01*
X117922140Y-31380941D01*
X117951000Y-31526033D01*
X117951000Y-31673967D01*
X117922140Y-31819059D01*
X117865528Y-31955732D01*
X117783340Y-32078735D01*
X117678735Y-32183340D01*
X117555732Y-32265528D01*
X117555731Y-32265529D01*
X117555730Y-32265529D01*
X117419059Y-32322140D01*
X117273968Y-32351000D01*
X117126032Y-32351000D01*
X116980941Y-32322140D01*
X116844270Y-32265529D01*
X116844269Y-32265529D01*
X116844268Y-32265528D01*
X116721265Y-32183340D01*
X116616660Y-32078735D01*
X116534472Y-31955732D01*
X116477860Y-31819059D01*
X116449000Y-31673967D01*
X116449000Y-31526033D01*
X116477860Y-31380941D01*
X116534472Y-31244268D01*
X116616660Y-31121265D01*
X116721265Y-31016660D01*
X116844268Y-30934472D01*
X116980941Y-30877860D01*
X117126032Y-30849000D01*
X117273968Y-30849000D01*
X117419059Y-30877860D01*
G37*
G36*
X117419059Y-28337860D02*
G01*
X117555732Y-28394472D01*
X117678735Y-28476660D01*
X117783340Y-28581265D01*
X117865528Y-28704268D01*
X117922140Y-28840941D01*
X117951000Y-28986033D01*
X117951000Y-29133967D01*
X117922140Y-29279059D01*
X117865528Y-29415732D01*
X117783340Y-29538735D01*
X117678735Y-29643340D01*
X117555732Y-29725528D01*
X117555731Y-29725529D01*
X117555730Y-29725529D01*
X117419059Y-29782140D01*
X117273968Y-29811000D01*
X117126032Y-29811000D01*
X116980941Y-29782140D01*
X116844270Y-29725529D01*
X116844269Y-29725529D01*
X116844268Y-29725528D01*
X116721265Y-29643340D01*
X116616660Y-29538735D01*
X116534472Y-29415732D01*
X116477860Y-29279059D01*
X116449000Y-29133967D01*
X116449000Y-28986033D01*
X116477860Y-28840941D01*
X116534472Y-28704268D01*
X116616660Y-28581265D01*
X116721265Y-28476660D01*
X116844268Y-28394472D01*
X116980941Y-28337860D01*
X117126032Y-28309000D01*
X117273968Y-28309000D01*
X117419059Y-28337860D01*
G37*
G36*
X99701000Y-26901000D02*
G01*
X97099000Y-26901000D01*
X97099000Y-24299000D01*
X99701000Y-24299000D01*
X99701000Y-26901000D01*
G37*
G36*
X113701000Y-26901000D02*
G01*
X111099000Y-26901000D01*
X111099000Y-24299000D01*
X113701000Y-24299000D01*
X113701000Y-26901000D01*
G37*
G36*
X102951000Y-26901000D02*
G01*
X100349000Y-26901000D01*
X100349000Y-24299000D01*
X102951000Y-24299000D01*
X102951000Y-26901000D01*
G37*
G36*
X110451000Y-26901000D02*
G01*
X107849000Y-26901000D01*
X107849000Y-24299000D01*
X110451000Y-24299000D01*
X110451000Y-26901000D01*
G37*
G36*
X102248228Y-20581703D02*
G01*
X102403100Y-20645853D01*
X102542481Y-20738985D01*
X102661015Y-20857519D01*
X102754147Y-20996900D01*
X102818297Y-21151772D01*
X102851000Y-21316184D01*
X102851000Y-21483816D01*
X102818297Y-21648228D01*
X102754147Y-21803100D01*
X102661015Y-21942481D01*
X102542481Y-22061015D01*
X102403100Y-22154147D01*
X102248228Y-22218297D01*
X102083816Y-22251000D01*
X101916184Y-22251000D01*
X101751772Y-22218297D01*
X101596900Y-22154147D01*
X101457519Y-22061015D01*
X101338985Y-21942481D01*
X101245853Y-21803100D01*
X101181703Y-21648228D01*
X101149000Y-21483816D01*
X101149000Y-21316184D01*
X101181703Y-21151772D01*
X101245853Y-20996900D01*
X101338985Y-20857519D01*
X101457519Y-20738985D01*
X101596900Y-20645853D01*
X101751772Y-20581703D01*
X101916184Y-20549000D01*
X102083816Y-20549000D01*
X102248228Y-20581703D01*
G37*
G36*
X110651000Y-22251000D02*
G01*
X108949000Y-22251000D01*
X108949000Y-20549000D01*
X110651000Y-20549000D01*
X110651000Y-22251000D01*
G37*
G36*
X107531000Y-22121000D02*
G01*
X106089000Y-22121000D01*
X106089000Y-20679000D01*
X107531000Y-20679000D01*
X107531000Y-22121000D01*
G37*
M02*
