G04 #@! TF.GenerationSoftware,KiCad,Pcbnew,(5.1.5)-2*
G04 #@! TF.CreationDate,2020-01-26T14:31:08-07:00*
G04 #@! TF.ProjectId,AGB_LIPO,4147425f-4c49-4504-9f2e-6b696361645f,rev?*
G04 #@! TF.SameCoordinates,Original*
G04 #@! TF.FileFunction,Legend,Top*
G04 #@! TF.FilePolarity,Positive*
%FSLAX46Y46*%
G04 Gerber Fmt 4.6, Leading zero omitted, Abs format (unit mm)*
G04 Created by KiCad (PCBNEW (5.1.5)-2) date 2020-01-26 14:31:08*
%MOMM*%
%LPD*%
G04 APERTURE LIST*
%ADD10C,0.150000*%
%ADD11C,0.300000*%
%ADD12C,0.120000*%
G04 APERTURE END LIST*
D10*
X75633214Y-26075000D02*
X75918929Y-26075000D01*
X75576071Y-26246428D02*
X75776071Y-25646428D01*
X75976071Y-26246428D01*
X76490357Y-25675000D02*
X76433214Y-25646428D01*
X76347500Y-25646428D01*
X76261786Y-25675000D01*
X76204643Y-25732142D01*
X76176071Y-25789285D01*
X76147500Y-25903571D01*
X76147500Y-25989285D01*
X76176071Y-26103571D01*
X76204643Y-26160714D01*
X76261786Y-26217857D01*
X76347500Y-26246428D01*
X76404643Y-26246428D01*
X76490357Y-26217857D01*
X76518929Y-26189285D01*
X76518929Y-25989285D01*
X76404643Y-25989285D01*
X76976071Y-25932142D02*
X77061786Y-25960714D01*
X77090357Y-25989285D01*
X77118929Y-26046428D01*
X77118929Y-26132142D01*
X77090357Y-26189285D01*
X77061786Y-26217857D01*
X77004643Y-26246428D01*
X76776071Y-26246428D01*
X76776071Y-25646428D01*
X76976071Y-25646428D01*
X77033214Y-25675000D01*
X77061786Y-25703571D01*
X77090357Y-25760714D01*
X77090357Y-25817857D01*
X77061786Y-25875000D01*
X77033214Y-25903571D01*
X76976071Y-25932142D01*
X76776071Y-25932142D01*
X77233214Y-26303571D02*
X77690357Y-26303571D01*
X78118929Y-26246428D02*
X77833214Y-26246428D01*
X77833214Y-25646428D01*
X78318929Y-26246428D02*
X78318929Y-25646428D01*
X78604643Y-26246428D02*
X78604643Y-25646428D01*
X78833214Y-25646428D01*
X78890357Y-25675000D01*
X78918929Y-25703571D01*
X78947500Y-25760714D01*
X78947500Y-25846428D01*
X78918929Y-25903571D01*
X78890357Y-25932142D01*
X78833214Y-25960714D01*
X78604643Y-25960714D01*
X79318929Y-25646428D02*
X79433214Y-25646428D01*
X79490357Y-25675000D01*
X79547500Y-25732142D01*
X79576071Y-25846428D01*
X79576071Y-26046428D01*
X79547500Y-26160714D01*
X79490357Y-26217857D01*
X79433214Y-26246428D01*
X79318929Y-26246428D01*
X79261786Y-26217857D01*
X79204643Y-26160714D01*
X79176071Y-26046428D01*
X79176071Y-25846428D01*
X79204643Y-25732142D01*
X79261786Y-25675000D01*
X79318929Y-25646428D01*
X79690357Y-26303571D02*
X80147500Y-26303571D01*
X80261786Y-26075000D02*
X80547500Y-26075000D01*
X80204643Y-26246428D02*
X80404643Y-25646428D01*
X80604643Y-26246428D01*
X80804643Y-26246428D02*
X80804643Y-25646428D01*
X80947500Y-25646428D01*
X81033214Y-25675000D01*
X81090357Y-25732142D01*
X81118929Y-25789285D01*
X81147500Y-25903571D01*
X81147500Y-25989285D01*
X81118929Y-26103571D01*
X81090357Y-26160714D01*
X81033214Y-26217857D01*
X80947500Y-26246428D01*
X80804643Y-26246428D01*
X81376071Y-26075000D02*
X81661786Y-26075000D01*
X81318929Y-26246428D02*
X81518929Y-25646428D01*
X81718929Y-26246428D01*
X81918929Y-26246428D02*
X81918929Y-25646428D01*
X82147500Y-25646428D01*
X82204643Y-25675000D01*
X82233214Y-25703571D01*
X82261786Y-25760714D01*
X82261786Y-25846428D01*
X82233214Y-25903571D01*
X82204643Y-25932142D01*
X82147500Y-25960714D01*
X81918929Y-25960714D01*
X82433214Y-25646428D02*
X82776071Y-25646428D01*
X82604643Y-26246428D02*
X82604643Y-25646428D01*
X82976071Y-25932142D02*
X83176071Y-25932142D01*
X83261786Y-26246428D02*
X82976071Y-26246428D01*
X82976071Y-25646428D01*
X83261786Y-25646428D01*
X83861786Y-26246428D02*
X83661786Y-25960714D01*
X83518929Y-26246428D02*
X83518929Y-25646428D01*
X83747500Y-25646428D01*
X83804643Y-25675000D01*
X83833214Y-25703571D01*
X83861786Y-25760714D01*
X83861786Y-25846428D01*
X83833214Y-25903571D01*
X83804643Y-25932142D01*
X83747500Y-25960714D01*
X83518929Y-25960714D01*
X75661786Y-27296428D02*
X75661786Y-26696428D01*
X75918929Y-27296428D02*
X75918929Y-26982142D01*
X75890357Y-26925000D01*
X75833214Y-26896428D01*
X75747500Y-26896428D01*
X75690357Y-26925000D01*
X75661786Y-26953571D01*
X76118929Y-26896428D02*
X76347500Y-26896428D01*
X76204643Y-26696428D02*
X76204643Y-27210714D01*
X76233214Y-27267857D01*
X76290357Y-27296428D01*
X76347500Y-27296428D01*
X76461786Y-26896428D02*
X76690357Y-26896428D01*
X76547500Y-26696428D02*
X76547500Y-27210714D01*
X76576071Y-27267857D01*
X76633214Y-27296428D01*
X76690357Y-27296428D01*
X76890357Y-26896428D02*
X76890357Y-27496428D01*
X76890357Y-26925000D02*
X76947500Y-26896428D01*
X77061786Y-26896428D01*
X77118929Y-26925000D01*
X77147500Y-26953571D01*
X77176071Y-27010714D01*
X77176071Y-27182142D01*
X77147500Y-27239285D01*
X77118929Y-27267857D01*
X77061786Y-27296428D01*
X76947500Y-27296428D01*
X76890357Y-27267857D01*
X77404643Y-27267857D02*
X77461786Y-27296428D01*
X77576071Y-27296428D01*
X77633214Y-27267857D01*
X77661786Y-27210714D01*
X77661786Y-27182142D01*
X77633214Y-27125000D01*
X77576071Y-27096428D01*
X77490357Y-27096428D01*
X77433214Y-27067857D01*
X77404643Y-27010714D01*
X77404643Y-26982142D01*
X77433214Y-26925000D01*
X77490357Y-26896428D01*
X77576071Y-26896428D01*
X77633214Y-26925000D01*
X77918929Y-27239285D02*
X77947500Y-27267857D01*
X77918929Y-27296428D01*
X77890357Y-27267857D01*
X77918929Y-27239285D01*
X77918929Y-27296428D01*
X77918929Y-26925000D02*
X77947500Y-26953571D01*
X77918929Y-26982142D01*
X77890357Y-26953571D01*
X77918929Y-26925000D01*
X77918929Y-26982142D01*
X78633214Y-26667857D02*
X78118929Y-27439285D01*
X79261786Y-26667857D02*
X78747500Y-27439285D01*
X79718929Y-26896428D02*
X79718929Y-27382142D01*
X79690357Y-27439285D01*
X79661786Y-27467857D01*
X79604643Y-27496428D01*
X79518929Y-27496428D01*
X79461786Y-27467857D01*
X79718929Y-27267857D02*
X79661786Y-27296428D01*
X79547500Y-27296428D01*
X79490357Y-27267857D01*
X79461786Y-27239285D01*
X79433214Y-27182142D01*
X79433214Y-27010714D01*
X79461786Y-26953571D01*
X79490357Y-26925000D01*
X79547500Y-26896428D01*
X79661786Y-26896428D01*
X79718929Y-26925000D01*
X80004643Y-27296428D02*
X80004643Y-26896428D01*
X80004643Y-26696428D02*
X79976071Y-26725000D01*
X80004643Y-26753571D01*
X80033214Y-26725000D01*
X80004643Y-26696428D01*
X80004643Y-26753571D01*
X80204643Y-26896428D02*
X80433214Y-26896428D01*
X80290357Y-26696428D02*
X80290357Y-27210714D01*
X80318929Y-27267857D01*
X80376071Y-27296428D01*
X80433214Y-27296428D01*
X80633214Y-27296428D02*
X80633214Y-26696428D01*
X80890357Y-27296428D02*
X80890357Y-26982142D01*
X80861786Y-26925000D01*
X80804643Y-26896428D01*
X80718929Y-26896428D01*
X80661786Y-26925000D01*
X80633214Y-26953571D01*
X81433214Y-26896428D02*
X81433214Y-27296428D01*
X81176071Y-26896428D02*
X81176071Y-27210714D01*
X81204643Y-27267857D01*
X81261786Y-27296428D01*
X81347500Y-27296428D01*
X81404643Y-27267857D01*
X81433214Y-27239285D01*
X81718929Y-27296428D02*
X81718929Y-26696428D01*
X81718929Y-26925000D02*
X81776071Y-26896428D01*
X81890357Y-26896428D01*
X81947500Y-26925000D01*
X81976071Y-26953571D01*
X82004643Y-27010714D01*
X82004643Y-27182142D01*
X81976071Y-27239285D01*
X81947500Y-27267857D01*
X81890357Y-27296428D01*
X81776071Y-27296428D01*
X81718929Y-27267857D01*
X82261786Y-27239285D02*
X82290357Y-27267857D01*
X82261786Y-27296428D01*
X82233214Y-27267857D01*
X82261786Y-27239285D01*
X82261786Y-27296428D01*
X82804643Y-27267857D02*
X82747500Y-27296428D01*
X82633214Y-27296428D01*
X82576071Y-27267857D01*
X82547500Y-27239285D01*
X82518929Y-27182142D01*
X82518929Y-27010714D01*
X82547500Y-26953571D01*
X82576071Y-26925000D01*
X82633214Y-26896428D01*
X82747500Y-26896428D01*
X82804643Y-26925000D01*
X83147500Y-27296428D02*
X83090357Y-27267857D01*
X83061786Y-27239285D01*
X83033214Y-27182142D01*
X83033214Y-27010714D01*
X83061786Y-26953571D01*
X83090357Y-26925000D01*
X83147500Y-26896428D01*
X83233214Y-26896428D01*
X83290357Y-26925000D01*
X83318929Y-26953571D01*
X83347500Y-27010714D01*
X83347500Y-27182142D01*
X83318929Y-27239285D01*
X83290357Y-27267857D01*
X83233214Y-27296428D01*
X83147500Y-27296428D01*
X83604643Y-27296428D02*
X83604643Y-26896428D01*
X83604643Y-26953571D02*
X83633214Y-26925000D01*
X83690357Y-26896428D01*
X83776071Y-26896428D01*
X83833214Y-26925000D01*
X83861786Y-26982142D01*
X83861786Y-27296428D01*
X83861786Y-26982142D02*
X83890357Y-26925000D01*
X83947500Y-26896428D01*
X84033214Y-26896428D01*
X84090357Y-26925000D01*
X84118929Y-26982142D01*
X84118929Y-27296428D01*
X84833214Y-26667857D02*
X84318929Y-27439285D01*
X85033214Y-27296428D02*
X85033214Y-26896428D01*
X85033214Y-26953571D02*
X85061786Y-26925000D01*
X85118929Y-26896428D01*
X85204643Y-26896428D01*
X85261786Y-26925000D01*
X85290357Y-26982142D01*
X85290357Y-27296428D01*
X85290357Y-26982142D02*
X85318929Y-26925000D01*
X85376071Y-26896428D01*
X85461786Y-26896428D01*
X85518929Y-26925000D01*
X85547500Y-26982142D01*
X85547500Y-27296428D01*
X86090357Y-27296428D02*
X86090357Y-26982142D01*
X86061786Y-26925000D01*
X86004643Y-26896428D01*
X85890357Y-26896428D01*
X85833214Y-26925000D01*
X86090357Y-27267857D02*
X86033214Y-27296428D01*
X85890357Y-27296428D01*
X85833214Y-27267857D01*
X85804643Y-27210714D01*
X85804643Y-27153571D01*
X85833214Y-27096428D01*
X85890357Y-27067857D01*
X86033214Y-27067857D01*
X86090357Y-27039285D01*
X86376071Y-27296428D02*
X86376071Y-26696428D01*
X86433214Y-27067857D02*
X86604643Y-27296428D01*
X86604643Y-26896428D02*
X86376071Y-27125000D01*
X86861786Y-27296428D02*
X86861786Y-26696428D01*
X87118929Y-27296428D02*
X87118929Y-26982142D01*
X87090357Y-26925000D01*
X87033214Y-26896428D01*
X86947500Y-26896428D01*
X86890357Y-26925000D01*
X86861786Y-26953571D01*
X87490357Y-27296428D02*
X87433214Y-27267857D01*
X87404643Y-27239285D01*
X87376071Y-27182142D01*
X87376071Y-27010714D01*
X87404643Y-26953571D01*
X87433214Y-26925000D01*
X87490357Y-26896428D01*
X87576071Y-26896428D01*
X87633214Y-26925000D01*
X87661786Y-26953571D01*
X87690357Y-27010714D01*
X87690357Y-27182142D01*
X87661786Y-27239285D01*
X87633214Y-27267857D01*
X87576071Y-27296428D01*
X87490357Y-27296428D01*
X87890357Y-26896428D02*
X88004643Y-27296428D01*
X88118929Y-27010714D01*
X88233214Y-27296428D01*
X88347500Y-26896428D01*
X88833214Y-27296428D02*
X88833214Y-26982142D01*
X88804643Y-26925000D01*
X88747500Y-26896428D01*
X88633214Y-26896428D01*
X88576071Y-26925000D01*
X88833214Y-27267857D02*
X88776071Y-27296428D01*
X88633214Y-27296428D01*
X88576071Y-27267857D01*
X88547500Y-27210714D01*
X88547500Y-27153571D01*
X88576071Y-27096428D01*
X88633214Y-27067857D01*
X88776071Y-27067857D01*
X88833214Y-27039285D01*
X89090357Y-27267857D02*
X89147500Y-27296428D01*
X89261786Y-27296428D01*
X89318929Y-27267857D01*
X89347500Y-27210714D01*
X89347500Y-27182142D01*
X89318929Y-27125000D01*
X89261786Y-27096428D01*
X89176071Y-27096428D01*
X89118929Y-27067857D01*
X89090357Y-27010714D01*
X89090357Y-26982142D01*
X89118929Y-26925000D01*
X89176071Y-26896428D01*
X89261786Y-26896428D01*
X89318929Y-26925000D01*
X89518929Y-26896428D02*
X89747500Y-26896428D01*
X89604643Y-26696428D02*
X89604643Y-27210714D01*
X89633214Y-27267857D01*
X89690357Y-27296428D01*
X89747500Y-27296428D01*
X90204643Y-27296428D02*
X90204643Y-26982142D01*
X90176071Y-26925000D01*
X90118929Y-26896428D01*
X90004643Y-26896428D01*
X89947500Y-26925000D01*
X90204643Y-27267857D02*
X90147500Y-27296428D01*
X90004643Y-27296428D01*
X89947500Y-27267857D01*
X89918929Y-27210714D01*
X89918929Y-27153571D01*
X89947500Y-27096428D01*
X90004643Y-27067857D01*
X90147500Y-27067857D01*
X90204643Y-27039285D01*
X90490357Y-27296428D02*
X90490357Y-26696428D01*
X90547500Y-27067857D02*
X90718929Y-27296428D01*
X90718929Y-26896428D02*
X90490357Y-27125000D01*
X91204643Y-27267857D02*
X91147500Y-27296428D01*
X91033214Y-27296428D01*
X90976071Y-27267857D01*
X90947500Y-27210714D01*
X90947500Y-26982142D01*
X90976071Y-26925000D01*
X91033214Y-26896428D01*
X91147500Y-26896428D01*
X91204643Y-26925000D01*
X91233214Y-26982142D01*
X91233214Y-27039285D01*
X90947500Y-27096428D01*
X91490357Y-26896428D02*
X91490357Y-27296428D01*
X91490357Y-26953571D02*
X91518929Y-26925000D01*
X91576071Y-26896428D01*
X91661786Y-26896428D01*
X91718929Y-26925000D01*
X91747500Y-26982142D01*
X91747500Y-27296428D01*
X92461786Y-26667857D02*
X91947500Y-27439285D01*
X92633214Y-27125000D02*
X92918929Y-27125000D01*
X92576071Y-27296428D02*
X92776071Y-26696428D01*
X92976071Y-27296428D01*
X93490357Y-26725000D02*
X93433214Y-26696428D01*
X93347500Y-26696428D01*
X93261786Y-26725000D01*
X93204643Y-26782142D01*
X93176071Y-26839285D01*
X93147500Y-26953571D01*
X93147500Y-27039285D01*
X93176071Y-27153571D01*
X93204643Y-27210714D01*
X93261786Y-27267857D01*
X93347500Y-27296428D01*
X93404643Y-27296428D01*
X93490357Y-27267857D01*
X93518929Y-27239285D01*
X93518929Y-27039285D01*
X93404643Y-27039285D01*
X93976071Y-26982142D02*
X94061786Y-27010714D01*
X94090357Y-27039285D01*
X94118929Y-27096428D01*
X94118929Y-27182142D01*
X94090357Y-27239285D01*
X94061786Y-27267857D01*
X94004643Y-27296428D01*
X93776071Y-27296428D01*
X93776071Y-26696428D01*
X93976071Y-26696428D01*
X94033214Y-26725000D01*
X94061786Y-26753571D01*
X94090357Y-26810714D01*
X94090357Y-26867857D01*
X94061786Y-26925000D01*
X94033214Y-26953571D01*
X93976071Y-26982142D01*
X93776071Y-26982142D01*
X94233214Y-27353571D02*
X94690357Y-27353571D01*
X95118929Y-27296428D02*
X94833214Y-27296428D01*
X94833214Y-26696428D01*
X95318929Y-27296428D02*
X95318929Y-26696428D01*
X95604643Y-27296428D02*
X95604643Y-26696428D01*
X95833214Y-26696428D01*
X95890357Y-26725000D01*
X95918929Y-26753571D01*
X95947500Y-26810714D01*
X95947500Y-26896428D01*
X95918929Y-26953571D01*
X95890357Y-26982142D01*
X95833214Y-27010714D01*
X95604643Y-27010714D01*
X96318929Y-26696428D02*
X96433214Y-26696428D01*
X96490357Y-26725000D01*
X96547500Y-26782142D01*
X96576071Y-26896428D01*
X96576071Y-27096428D01*
X96547500Y-27210714D01*
X96490357Y-27267857D01*
X96433214Y-27296428D01*
X96318929Y-27296428D01*
X96261786Y-27267857D01*
X96204643Y-27210714D01*
X96176071Y-27096428D01*
X96176071Y-26896428D01*
X96204643Y-26782142D01*
X96261786Y-26725000D01*
X96318929Y-26696428D01*
D11*
X119204761Y-33857142D02*
X119490476Y-33952380D01*
X119585714Y-34047619D01*
X119680952Y-34238095D01*
X119680952Y-34523809D01*
X119585714Y-34714285D01*
X119490476Y-34809523D01*
X119300000Y-34904761D01*
X118538095Y-34904761D01*
X118538095Y-32904761D01*
X119204761Y-32904761D01*
X119395238Y-33000000D01*
X119490476Y-33095238D01*
X119585714Y-33285714D01*
X119585714Y-33476190D01*
X119490476Y-33666666D01*
X119395238Y-33761904D01*
X119204761Y-33857142D01*
X118538095Y-33857142D01*
X120538095Y-34142857D02*
X122061904Y-34142857D01*
X119204761Y-27157142D02*
X119490476Y-27252380D01*
X119585714Y-27347619D01*
X119680952Y-27538095D01*
X119680952Y-27823809D01*
X119585714Y-28014285D01*
X119490476Y-28109523D01*
X119300000Y-28204761D01*
X118538095Y-28204761D01*
X118538095Y-26204761D01*
X119204761Y-26204761D01*
X119395238Y-26300000D01*
X119490476Y-26395238D01*
X119585714Y-26585714D01*
X119585714Y-26776190D01*
X119490476Y-26966666D01*
X119395238Y-27061904D01*
X119204761Y-27157142D01*
X118538095Y-27157142D01*
X120538095Y-27442857D02*
X122061904Y-27442857D01*
X121300000Y-28204761D02*
X121300000Y-26680952D01*
X79904761Y-37007142D02*
X80190476Y-37102380D01*
X80285714Y-37197619D01*
X80380952Y-37388095D01*
X80380952Y-37673809D01*
X80285714Y-37864285D01*
X80190476Y-37959523D01*
X80000000Y-38054761D01*
X79238095Y-38054761D01*
X79238095Y-36054761D01*
X79904761Y-36054761D01*
X80095238Y-36150000D01*
X80190476Y-36245238D01*
X80285714Y-36435714D01*
X80285714Y-36626190D01*
X80190476Y-36816666D01*
X80095238Y-36911904D01*
X79904761Y-37007142D01*
X79238095Y-37007142D01*
X81238095Y-37292857D02*
X82761904Y-37292857D01*
X82000000Y-38054761D02*
X82000000Y-36530952D01*
X79904761Y-40307142D02*
X80190476Y-40402380D01*
X80285714Y-40497619D01*
X80380952Y-40688095D01*
X80380952Y-40973809D01*
X80285714Y-41164285D01*
X80190476Y-41259523D01*
X80000000Y-41354761D01*
X79238095Y-41354761D01*
X79238095Y-39354761D01*
X79904761Y-39354761D01*
X80095238Y-39450000D01*
X80190476Y-39545238D01*
X80285714Y-39735714D01*
X80285714Y-39926190D01*
X80190476Y-40116666D01*
X80095238Y-40211904D01*
X79904761Y-40307142D01*
X79238095Y-40307142D01*
X81238095Y-40592857D02*
X82761904Y-40592857D01*
D10*
X96900000Y-23894000D02*
X113900000Y-23894000D01*
X113900000Y-49896000D02*
X96900000Y-49896000D01*
X108280000Y-44768000D02*
X108280000Y-49340000D01*
X102692000Y-44768000D02*
X108280000Y-44768000D01*
X102692000Y-49594000D02*
X102692000Y-44768000D01*
X102184000Y-49848000D02*
X102692000Y-49594000D01*
X102184000Y-50356000D02*
X102184000Y-49848000D01*
X108280000Y-49594000D02*
X108280000Y-49340000D01*
X108788000Y-49848000D02*
X108280000Y-49594000D01*
X108788000Y-50356000D02*
X108788000Y-49848000D01*
X108760000Y-50370000D02*
X102210000Y-50370000D01*
X96900000Y-49900000D02*
X96900000Y-23900000D01*
X113900000Y-49890000D02*
X113900000Y-23900000D01*
X116800000Y-32630000D02*
X116300000Y-32130000D01*
X117600000Y-32630000D02*
X116800000Y-32630000D01*
X118100000Y-32130000D02*
X117600000Y-32630000D01*
X118100000Y-28530000D02*
X118100000Y-32130000D01*
X117600000Y-28030000D02*
X118100000Y-28530000D01*
X116800000Y-28030000D02*
X117600000Y-28030000D01*
X116300000Y-28530000D02*
X116800000Y-28030000D01*
X116300000Y-32130000D02*
X116300000Y-28530000D01*
X107900000Y-20800000D02*
X107900000Y-22000000D01*
X108700000Y-20800000D02*
X108700000Y-22000000D01*
X107900000Y-20800000D02*
X108700000Y-21400000D01*
X108700000Y-21400000D02*
X107900000Y-22000000D01*
X108700000Y-21400000D02*
X109100000Y-21400000D01*
X107900000Y-21400000D02*
X107500000Y-21400000D01*
X103100000Y-20600000D02*
X103100000Y-22200000D01*
X103100000Y-22200000D02*
X109100000Y-22200000D01*
X109100000Y-22200000D02*
X109100000Y-20600000D01*
X109100000Y-20600000D02*
X103100000Y-20600000D01*
D12*
X75670000Y-36170000D02*
X77000000Y-36170000D01*
X75670000Y-37500000D02*
X75670000Y-36170000D01*
X75670000Y-38770000D02*
X78330000Y-38770000D01*
X78330000Y-38770000D02*
X78330000Y-41370000D01*
X75670000Y-38770000D02*
X75670000Y-41370000D01*
X75670000Y-41370000D02*
X78330000Y-41370000D01*
D10*
X105982380Y-38627904D02*
X106791904Y-38627904D01*
X106887142Y-38580285D01*
X106934761Y-38532666D01*
X106982380Y-38437428D01*
X106982380Y-38246952D01*
X106934761Y-38151714D01*
X106887142Y-38104095D01*
X106791904Y-38056476D01*
X105982380Y-38056476D01*
X106982380Y-37056476D02*
X106982380Y-37627904D01*
X106982380Y-37342190D02*
X105982380Y-37342190D01*
X106125238Y-37437428D01*
X106220476Y-37532666D01*
X106268095Y-37627904D01*
X99722380Y-45172857D02*
X98722380Y-45172857D01*
X99722380Y-44696666D02*
X98722380Y-44696666D01*
X99722380Y-44125238D01*
X98722380Y-44125238D01*
X99341428Y-43649047D02*
X99341428Y-42887142D01*
X99722380Y-43268095D02*
X98960476Y-43268095D01*
X112612380Y-44642857D02*
X111612380Y-44642857D01*
X112612380Y-44166666D02*
X111612380Y-44166666D01*
X112612380Y-43595238D01*
X111612380Y-43595238D01*
X112231428Y-43119047D02*
X112231428Y-42357142D01*
X98504380Y-31349047D02*
X98504380Y-31158571D01*
X98552000Y-31063333D01*
X98647238Y-30968095D01*
X98837714Y-30920476D01*
X99171047Y-30920476D01*
X99361523Y-30968095D01*
X99456761Y-31063333D01*
X99504380Y-31158571D01*
X99504380Y-31349047D01*
X99456761Y-31444285D01*
X99361523Y-31539523D01*
X99171047Y-31587142D01*
X98837714Y-31587142D01*
X98647238Y-31539523D01*
X98552000Y-31444285D01*
X98504380Y-31349047D01*
X98504380Y-30491904D02*
X99313904Y-30491904D01*
X99409142Y-30444285D01*
X99456761Y-30396666D01*
X99504380Y-30301428D01*
X99504380Y-30110952D01*
X99456761Y-30015714D01*
X99409142Y-29968095D01*
X99313904Y-29920476D01*
X98504380Y-29920476D01*
X98504380Y-29587142D02*
X98504380Y-29015714D01*
X99504380Y-29301428D02*
X98504380Y-29301428D01*
X99123428Y-28682380D02*
X99123428Y-27920476D01*
X99504380Y-28301428D02*
X98742476Y-28301428D01*
X111408380Y-31029047D02*
X111408380Y-30838571D01*
X111456000Y-30743333D01*
X111551238Y-30648095D01*
X111741714Y-30600476D01*
X112075047Y-30600476D01*
X112265523Y-30648095D01*
X112360761Y-30743333D01*
X112408380Y-30838571D01*
X112408380Y-31029047D01*
X112360761Y-31124285D01*
X112265523Y-31219523D01*
X112075047Y-31267142D01*
X111741714Y-31267142D01*
X111551238Y-31219523D01*
X111456000Y-31124285D01*
X111408380Y-31029047D01*
X111408380Y-30171904D02*
X112217904Y-30171904D01*
X112313142Y-30124285D01*
X112360761Y-30076666D01*
X112408380Y-29981428D01*
X112408380Y-29790952D01*
X112360761Y-29695714D01*
X112313142Y-29648095D01*
X112217904Y-29600476D01*
X111408380Y-29600476D01*
X111408380Y-29267142D02*
X111408380Y-28695714D01*
X112408380Y-28981428D02*
X111408380Y-28981428D01*
X112027428Y-28362380D02*
X112027428Y-27600476D01*
X103316571Y-26473619D02*
X103364190Y-26330761D01*
X103411809Y-26283142D01*
X103507047Y-26235523D01*
X103649904Y-26235523D01*
X103745142Y-26283142D01*
X103792761Y-26330761D01*
X103840380Y-26426000D01*
X103840380Y-26806952D01*
X102840380Y-26806952D01*
X102840380Y-26473619D01*
X102888000Y-26378380D01*
X102935619Y-26330761D01*
X103030857Y-26283142D01*
X103126095Y-26283142D01*
X103221333Y-26330761D01*
X103268952Y-26378380D01*
X103316571Y-26473619D01*
X103316571Y-26806952D01*
X103459428Y-25806952D02*
X103459428Y-25045047D01*
X103840380Y-25426000D02*
X103078476Y-25426000D01*
X106618571Y-26473619D02*
X106666190Y-26330761D01*
X106713809Y-26283142D01*
X106809047Y-26235523D01*
X106951904Y-26235523D01*
X107047142Y-26283142D01*
X107094761Y-26330761D01*
X107142380Y-26426000D01*
X107142380Y-26806952D01*
X106142380Y-26806952D01*
X106142380Y-26473619D01*
X106190000Y-26378380D01*
X106237619Y-26330761D01*
X106332857Y-26283142D01*
X106428095Y-26283142D01*
X106523333Y-26330761D01*
X106570952Y-26378380D01*
X106618571Y-26473619D01*
X106618571Y-26806952D01*
X106761428Y-25806952D02*
X106761428Y-25045047D01*
X105938380Y-49395142D02*
X105271714Y-49395142D01*
X105366952Y-49395142D02*
X105319333Y-49347523D01*
X105271714Y-49252285D01*
X105271714Y-49109428D01*
X105319333Y-49014190D01*
X105414571Y-48966571D01*
X105938380Y-48966571D01*
X105414571Y-48966571D02*
X105319333Y-48918952D01*
X105271714Y-48823714D01*
X105271714Y-48680857D01*
X105319333Y-48585619D01*
X105414571Y-48538000D01*
X105938380Y-48538000D01*
X105938380Y-48061809D02*
X105271714Y-48061809D01*
X104938380Y-48061809D02*
X104986000Y-48109428D01*
X105033619Y-48061809D01*
X104986000Y-48014190D01*
X104938380Y-48061809D01*
X105033619Y-48061809D01*
X105890761Y-47157047D02*
X105938380Y-47252285D01*
X105938380Y-47442761D01*
X105890761Y-47538000D01*
X105843142Y-47585619D01*
X105747904Y-47633238D01*
X105462190Y-47633238D01*
X105366952Y-47585619D01*
X105319333Y-47538000D01*
X105271714Y-47442761D01*
X105271714Y-47252285D01*
X105319333Y-47157047D01*
X105938380Y-46728476D02*
X105271714Y-46728476D01*
X105462190Y-46728476D02*
X105366952Y-46680857D01*
X105319333Y-46633238D01*
X105271714Y-46538000D01*
X105271714Y-46442761D01*
X105938380Y-45966571D02*
X105890761Y-46061809D01*
X105843142Y-46109428D01*
X105747904Y-46157047D01*
X105462190Y-46157047D01*
X105366952Y-46109428D01*
X105319333Y-46061809D01*
X105271714Y-45966571D01*
X105271714Y-45823714D01*
X105319333Y-45728476D01*
X105366952Y-45680857D01*
X105462190Y-45633238D01*
X105747904Y-45633238D01*
X105843142Y-45680857D01*
X105890761Y-45728476D01*
X105938380Y-45823714D01*
X105938380Y-45966571D01*
X104938380Y-45204666D02*
X105747904Y-45204666D01*
X105843142Y-45157047D01*
X105890761Y-45109428D01*
X105938380Y-45014190D01*
X105938380Y-44823714D01*
X105890761Y-44728476D01*
X105843142Y-44680857D01*
X105747904Y-44633238D01*
X104938380Y-44633238D01*
X105890761Y-44204666D02*
X105938380Y-44061809D01*
X105938380Y-43823714D01*
X105890761Y-43728476D01*
X105843142Y-43680857D01*
X105747904Y-43633238D01*
X105652666Y-43633238D01*
X105557428Y-43680857D01*
X105509809Y-43728476D01*
X105462190Y-43823714D01*
X105414571Y-44014190D01*
X105366952Y-44109428D01*
X105319333Y-44157047D01*
X105224095Y-44204666D01*
X105128857Y-44204666D01*
X105033619Y-44157047D01*
X104986000Y-44109428D01*
X104938380Y-44014190D01*
X104938380Y-43776095D01*
X104986000Y-43633238D01*
X105414571Y-42871333D02*
X105462190Y-42728476D01*
X105509809Y-42680857D01*
X105605047Y-42633238D01*
X105747904Y-42633238D01*
X105843142Y-42680857D01*
X105890761Y-42728476D01*
X105938380Y-42823714D01*
X105938380Y-43204666D01*
X104938380Y-43204666D01*
X104938380Y-42871333D01*
X104986000Y-42776095D01*
X105033619Y-42728476D01*
X105128857Y-42680857D01*
X105224095Y-42680857D01*
X105319333Y-42728476D01*
X105366952Y-42776095D01*
X105414571Y-42871333D01*
X105414571Y-43204666D01*
X114652380Y-30633333D02*
X115366666Y-30633333D01*
X115509523Y-30680952D01*
X115604761Y-30776190D01*
X115652380Y-30919047D01*
X115652380Y-31014285D01*
X115652380Y-29633333D02*
X115652380Y-30204761D01*
X115652380Y-29919047D02*
X114652380Y-29919047D01*
X114795238Y-30014285D01*
X114890476Y-30109523D01*
X114938095Y-30204761D01*
X103509523Y-21812704D02*
X103509523Y-21012704D01*
X103700000Y-21012704D01*
X103814285Y-21050800D01*
X103890476Y-21126990D01*
X103928571Y-21203180D01*
X103966666Y-21355561D01*
X103966666Y-21469847D01*
X103928571Y-21622228D01*
X103890476Y-21698419D01*
X103814285Y-21774609D01*
X103700000Y-21812704D01*
X103509523Y-21812704D01*
X104728571Y-21812704D02*
X104271428Y-21812704D01*
X104500000Y-21812704D02*
X104500000Y-21012704D01*
X104423809Y-21126990D01*
X104347619Y-21203180D01*
X104271428Y-21241276D01*
X76214285Y-35098571D02*
X76357142Y-35146190D01*
X76404761Y-35193809D01*
X76452380Y-35289047D01*
X76452380Y-35431904D01*
X76404761Y-35527142D01*
X76357142Y-35574761D01*
X76261904Y-35622380D01*
X75880952Y-35622380D01*
X75880952Y-34622380D01*
X76214285Y-34622380D01*
X76309523Y-34670000D01*
X76357142Y-34717619D01*
X76404761Y-34812857D01*
X76404761Y-34908095D01*
X76357142Y-35003333D01*
X76309523Y-35050952D01*
X76214285Y-35098571D01*
X75880952Y-35098571D01*
X76738095Y-34622380D02*
X77309523Y-34622380D01*
X77023809Y-35622380D02*
X77023809Y-34622380D01*
X78166666Y-35622380D02*
X77595238Y-35622380D01*
X77880952Y-35622380D02*
X77880952Y-34622380D01*
X77785714Y-34765238D01*
X77690476Y-34860476D01*
X77595238Y-34908095D01*
M02*
