M48
; DRILL file {KiCad (5.1.5)-2} date 1/26/2020 2:31:10 PM
; FORMAT={-:-/ absolute / inch / decimal}
; #@! TF.CreationDate,2020-01-26T14:31:10-07:00
; #@! TF.GenerationSoftware,Kicad,Pcbnew,(5.1.5)-2
FMAT,2
INCH
T1C0.0157
T2C0.0276
T3C0.0315
T4C0.0394
T5C0.0492
%
G90
G05
T1
X4.7598Y-0.8307
X4.7598Y-0.8839
X4.7598Y-0.935
X4.7598Y-0.9882
X4.7598Y-1.4409
X4.7598Y-1.4941
X4.7598Y-1.5453
X4.7598Y-1.5984
X4.8091Y-0.8307
X4.8091Y-0.8839
X4.8091Y-0.935
X4.8091Y-0.9882
X4.8091Y-1.4409
X4.8091Y-1.4941
X4.8091Y-1.5453
X4.8091Y-1.5984
X4.8583Y-0.8307
X4.8583Y-0.8839
X4.8583Y-0.935
X4.8583Y-0.9882
X4.8583Y-1.4409
X4.8583Y-1.4941
X4.8583Y-1.5453
X4.8583Y-1.5984
X4.9075Y-0.8307
X4.9075Y-0.8839
X4.9075Y-0.935
X4.9075Y-0.9882
X4.9075Y-1.4409
X4.9075Y-1.4941
X4.9075Y-1.5453
X4.9075Y-1.5984
X4.9567Y-0.8307
X4.9567Y-0.8839
X4.9567Y-0.935
X4.9567Y-0.9882
X4.9567Y-1.4409
X4.9567Y-1.4941
X4.9567Y-1.5453
X4.9567Y-1.5984
T2
X4.0157Y-0.8425
X4.3228Y-0.8425
T3
X4.6142Y-1.1441
X4.6142Y-1.2441
T4
X3.0315Y-1.4764
X3.0315Y-1.5764
T5
X3.874Y-1.0079
X4.002Y-1.0079
X4.2972Y-1.0079
X4.4252Y-1.0079
T0
M30
